<svg version="1.1" id="Layer_1" xmlns="http://www.w3.org/2000/svg" xmlns:xlink="http://www.w3.org/1999/xlink" x="0px" y="0px"
	 width="100%" viewBox="0 0 400 400" enable-background="new 0 0 400 400" xml:space="preserve">
<path fill="#FFFFFF" opacity="1.000000" stroke="none" 
	d="
M277.000000,401.000000 
	C184.695358,401.000000 92.890717,401.000000 1.043040,401.000000 
	C1.043040,267.737030 1.043040,134.474045 1.043040,1.105529 
	C134.221252,1.105529 267.442596,1.105529 400.831970,1.105529 
	C400.831970,134.333160 400.831970,267.666565 400.831970,401.000000 
	C359.807465,401.000000 318.653717,401.000000 277.000000,401.000000 
M231.673019,365.168549 
	C247.457642,363.014465 262.548584,358.438110 276.861023,351.530640 
	C280.489838,349.779297 282.399780,350.287598 284.674194,353.326355 
	C287.762573,357.452637 291.402557,361.162201 294.579224,365.227631 
	C296.597870,367.810974 298.847961,368.857971 302.212250,368.833435 
	C323.370331,368.678925 344.530090,368.761230 365.689301,368.741608 
	C367.091095,368.740295 368.492676,368.544006 370.500122,368.392761 
	C369.247101,366.588013 368.468811,365.337708 367.565460,364.185394 
	C355.132599,348.325989 342.748901,332.427094 330.175568,316.679688 
	C327.905090,313.836060 327.938629,312.110107 330.151459,309.079773 
	C335.733032,301.436035 341.339325,293.679565 345.769806,285.348267 
	C367.067108,245.299988 371.949677,202.785706 361.765259,158.929855 
	C349.541351,106.291527 319.894348,66.969627 269.260681,45.552551 
	C235.687714,31.351816 200.506653,29.011181 164.849915,35.109650 
	C119.200974,42.917110 82.764511,65.546951 57.972694,105.123497 
	C32.039471,146.522141 25.774668,191.610382 35.566895,239.028641 
	C42.880306,274.443390 59.271603,305.128143 86.941620,328.836426 
	C128.740143,364.650330 177.972382,372.386810 231.673019,365.168549 
z"/>
<path fill="#E85C5C" opacity="1.000000" stroke="none" 
	d="
M231.239807,365.245850 
	C177.972382,372.386810 128.740143,364.650330 86.941620,328.836426 
	C59.271603,305.128143 42.880306,274.443390 35.566895,239.028641 
	C25.774668,191.610382 32.039471,146.522141 57.972694,105.123497 
	C82.764511,65.546951 119.200974,42.917110 164.849915,35.109650 
	C200.506653,29.011181 235.687714,31.351816 269.260681,45.552551 
	C319.894348,66.969627 349.541351,106.291527 361.765259,158.929855 
	C371.949677,202.785706 367.067108,245.299988 345.769806,285.348267 
	C341.339325,293.679565 335.733032,301.436035 330.151459,309.079773 
	C327.938629,312.110107 327.905090,313.836060 330.175568,316.679688 
	C342.748901,332.427094 355.132599,348.325989 367.565460,364.185394 
	C368.468811,365.337708 369.247101,366.588013 370.500122,368.392761 
	C368.492676,368.544006 367.091095,368.740295 365.689301,368.741608 
	C344.530090,368.761230 323.370331,368.678925 302.212250,368.833435 
	C298.847961,368.857971 296.597870,367.810974 294.579224,365.227631 
	C291.402557,361.162201 287.762573,357.452637 284.674194,353.326355 
	C282.399780,350.287598 280.489838,349.779297 276.861023,351.530640 
	C262.548584,358.438110 247.457642,363.014465 231.239807,365.245850 
M119.462517,261.017548 
	C149.307663,305.771454 207.857849,306.464783 236.115982,293.667114 
	C217.835571,271.265747 199.608368,248.929581 180.843048,225.933990 
	C206.942902,225.933990 231.921432,225.881241 256.898346,226.057953 
	C258.488251,226.069183 260.481415,227.524704 261.581024,228.880768 
	C268.587250,237.520920 275.395264,246.321808 282.511353,255.378784 
	C283.440552,253.799179 284.176422,252.705078 284.759033,251.534668 
	C296.128510,228.694061 299.249512,204.656845 294.641663,179.673203 
	C290.474792,157.080551 280.635590,137.352646 263.058441,122.166862 
	C241.005753,103.114388 214.793716,97.694473 186.542984,100.472603 
	C162.402298,102.846558 141.657715,112.553482 125.796432,131.291992 
	C95.975784,166.522125 93.264763,220.348618 119.462517,261.017548 
z"/>
<path fill="#FFFEFE" opacity="1.000000" stroke="none" 
	d="
M119.260483,260.718628 
	C93.264763,220.348618 95.975784,166.522125 125.796432,131.291992 
	C141.657715,112.553482 162.402298,102.846558 186.542984,100.472603 
	C214.793716,97.694473 241.005753,103.114388 263.058441,122.166862 
	C280.635590,137.352646 290.474792,157.080551 294.641663,179.673203 
	C299.249512,204.656845 296.128510,228.694061 284.759033,251.534668 
	C284.176422,252.705078 283.440552,253.799179 282.511353,255.378784 
	C275.395264,246.321808 268.587250,237.520920 261.581024,228.880768 
	C260.481415,227.524704 258.488251,226.069183 256.898346,226.057953 
	C231.921432,225.881241 206.942902,225.933990 180.843048,225.933990 
	C199.608368,248.929581 217.835571,271.265747 236.115982,293.667114 
	C207.857849,306.464783 149.307663,305.771454 119.260483,260.718628 
z"/>
</svg>